<?xml version="1.0" encoding="utf-8"?>
<!-- Generator: Adobe Illustrator 17.0.0, SVG Export Plug-In . SVG Version: 6.00 Build 0)  -->
<!DOCTYPE svg PUBLIC "-//W3C//DTD SVG 1.1//EN" "http://www.w3.org/Graphics/SVG/1.1/DTD/svg11.dtd">
<svg version="1.1" id="Layer_1" xmlns="http://www.w3.org/2000/svg" xmlns:xlink="http://www.w3.org/1999/xlink" x="0px" y="0px"
	 width="512px" height="512px" viewBox="0 0 512 512" enable-background="new 0 0 512 512" xml:space="preserve">
<g>
	<g>
		<path d="M368.354,345.669c-30.961-15.858-62.982-29.027-95.376-41.452c-2.419-0.91-5.295-2.773-6.3-4.88
			c-2.65-5.847-4.465-12.048-6.384-18.154c-1.169-3.942-2.221-7.615-6.502-9.53c-1.169-0.5-2.221-2.754-2.221-4.22
			c0.259-14.221-3.056-29.15,7.507-41.556c0.321-0.387,0.462-0.929,0.684-1.391c5.701-12.444,6.667-26.689,14.636-38.293
			c0.203-0.25,0.25-0.637,0.288-0.967c0.929-8.879,1.867-17.673,2.636-26.514c0.08-1.085-0.877-3.041-1.825-3.381
			c-4.376-1.528-4.145-5.074-4.116-8.582c0-17.277,0-19.781-0.028-37.057c0-10.048-2.956-18.96-10.534-25.807
			c-8.653-7.761-17.531-15.278-26.424-22.775c-4.263-3.631-4.668-6.427-0.637-10.407c1.787-1.768,4.041-3.041,6.116-4.513
			c-0.462-0.684-0.91-1.353-1.353-2.037c-2.688,0-5.39-0.349-7.983,0.038c-9.836,1.594-19.71,2.985-29.343,5.248
			c-18.427,4.347-36.322,10.105-51.26,22.445c-10.204,8.417-18.366,18.234-19.403,32.125c-0.514,7.276-0.453,14.608-0.514,21.865
			c-0.057,11.887,0.108,8.997-0.146,20.832c-0.066,1.933-1.122,5.111-2.476,5.536c-4.791,1.565-4.946,4.63-4.281,8.629
			c0.472,2.754,0.118,5.616,0.717,8.308c1.65,7.422,3.419,14.844,5.555,22.138c1.575,5.441,4.659,10.581,5.545,16.107
			c1.693,11.053,5.819,20.658,13.288,29.008c1.207,1.391,2.136,3.692,1.999,5.536c-0.589,8.473-1.466,16.994-2.617,25.444
			c-0.24,1.641-1.962,4.107-3.362,4.423c-5.663,1.151-6.521,5.498-7.884,9.921c-1.759,5.809-3.664,11.604-5.913,17.22
			c-0.698,1.759-2.457,3.574-4.192,4.366c-10.029,4.347-20.271,8.379-30.39,12.632c-10.756,4.522-21.634,8.851-32.149,13.844
			c-10.84,5.201-21.365,11.02-31.965,16.72c-6.252,3.334-12.085,7.04-16.966,11.633L0,421.067
			c71.936,0,109.494,52.014,184.358,58.427l-27.584-38.062l42.768-116.991l-13.226-28.41h26.495l-13.269,28.41l42.777,116.991
			l-26.854,37.142c54.504-9.129,141.487-57.503,183.689-57.503l-14.764-63.689C379.859,352.742,374.526,348.838,368.354,345.669z"/>
		<path d="M421.504,33.088c-49.897,0-90.486,40.594-90.486,90.491c0,1.971,0.075,3.961,0.212,6.003l-41.542,26.995
			c-2.48,1.622-3.777,4.56-3.263,7.478c0.49,2.928,2.683,5.267,5.573,5.97l63.397,15.306c17.102,18.291,41.056,28.735,66.113,28.735
			c49.897,0,90.491-40.584,90.491-90.482S471.401,33.088,421.504,33.088z M421.504,199.217c-21.605,0-42.235-9.294-56.602-25.491
			c-1.004-1.132-2.339-1.933-3.815-2.292l-48.855-11.798l30.843-20.04c2.367-1.537,3.654-4.281,3.334-7.082
			c-0.368-3.159-0.552-6.078-0.552-8.935c0-41.711,33.936-75.647,75.647-75.647s75.647,33.936,75.647,75.647
			S463.211,199.217,421.504,199.217z"/>
		<path d="M394.014,121.005h-12.562c-0.868,0-1.575,0.707-1.575,1.575v41.886c0,0.868,0.707,1.565,1.575,1.565h12.562
			c0.882,0,1.575-0.698,1.575-1.565V122.58C395.589,121.712,394.886,121.005,394.014,121.005z"/>
		<path d="M426.606,103.728h-12.562c-0.877,0-1.575,0.707-1.575,1.575v59.163c0,0.868,0.698,1.565,1.575,1.565h12.562
			c0.872,0,1.575-0.698,1.575-1.565v-59.163C428.181,104.435,427.469,103.728,426.606,103.728z"/>
		<path d="M457.76,70.155h-12.571c-0.868,0-1.565,0.698-1.565,1.565v92.74c0,0.868,0.698,1.565,1.565,1.565h12.571
			c0.868,0,1.565-0.698,1.565-1.565V71.72C459.326,70.858,458.628,70.155,457.76,70.155z"/>
	</g>
</g>
</svg>
