<?xml version="1.0" encoding="utf-8"?>
<!-- Generator: Adobe Illustrator 17.0.0, SVG Export Plug-In . SVG Version: 6.00 Build 0)  -->
<!DOCTYPE svg PUBLIC "-//W3C//DTD SVG 1.1//EN" "http://www.w3.org/Graphics/SVG/1.1/DTD/svg11.dtd">
<svg version="1.1" id="Layer_1" xmlns="http://www.w3.org/2000/svg" xmlns:xlink="http://www.w3.org/1999/xlink" x="0px" y="0px"
	 width="512px" height="512px" viewBox="0 0 512 512" enable-background="new 0 0 512 512" xml:space="preserve">
<path d="M1,0v512h512V0H1z M182.937,385.611c-72.212,0-129.611-57.4-129.611-129.611s57.399-129.611,129.611-129.611
	c35.181,0,64.806,12.961,87.024,35.181l-35.181,33.328c-9.258-9.258-25.922-20.367-51.845-20.367
	c-44.437,0-79.618,37.032-79.618,81.47s35.181,81.47,79.618,81.47c51.845,0,70.36-37.032,74.063-55.548h-74.063v-44.438H305.14
	c1.852,7.407,1.852,12.961,1.852,22.22C306.994,333.767,257,385.611,182.937,385.611z M460.675,274.516h-37.032v37.032H386.61
	v-37.032h-37.032v-37.032h37.032v-37.032h37.033v37.032h37.032V274.516z"/>
</svg>
