<?xml version="1.0" encoding="utf-8"?>
<!-- Generator: Adobe Illustrator 17.0.0, SVG Export Plug-In . SVG Version: 6.00 Build 0)  -->
<!DOCTYPE svg PUBLIC "-//W3C//DTD SVG 1.1//EN" "http://www.w3.org/Graphics/SVG/1.1/DTD/svg11.dtd">
<svg version="1.1" id="Layer_1" xmlns="http://www.w3.org/2000/svg" xmlns:xlink="http://www.w3.org/1999/xlink" x="0px" y="0px"
	 width="512px" height="512px" viewBox="0 0 512 512" enable-background="new 0 0 512 512" xml:space="preserve">
<g>
	<path d="M512.712,128.739V54.276c0-4.05-3.251-7.333-7.264-7.333H8.071c-4.007,0-7.26,3.278-7.26,7.333v95.999
		c0,0.514,0.051,1.015,0.148,1.497V464.68h511.852V128.739H512.712z M494.486,446.358H19.285V157.602h475.201V446.358z
		 M208.984,351.152l-96.681-49.8V290.1l96.681-49.795v14.371l-81.472,40.838v0.423l81.472,40.839V351.152z M402.113,301.568
		l-96.676,49.588V336.78l82.1-40.844v-0.416l-82.1-40.833V240.31l96.676,49.583L402.113,301.568L402.113,301.568z M229.058,385.694
		h-16.077l66.908-173.906h16.316L229.058,385.694z"/>
</g>
</svg>
