<?xml version="1.0" encoding="utf-8"?>
<!-- Generator: Adobe Illustrator 17.0.0, SVG Export Plug-In . SVG Version: 6.00 Build 0)  -->
<!DOCTYPE svg PUBLIC "-//W3C//DTD SVG 1.1//EN" "http://www.w3.org/Graphics/SVG/1.1/DTD/svg11.dtd">
<svg version="1.1" id="Layer_1" xmlns="http://www.w3.org/2000/svg" xmlns:xlink="http://www.w3.org/1999/xlink" x="0px" y="0px"
	 width="512px" height="512px" viewBox="0 0 512 512" enable-background="new 0 0 512 512" xml:space="preserve">
<g>
	<path d="M354.402,256.001c0,53.793-43.609,97.401-97.401,97.401s-97.401-43.609-97.401-97.401c0-7.72,0.892-15.229,2.595-22.43
		h-27.223v128.285c0,7.082,5.751,12.819,12.832,12.819h218.391c7.081,0,12.832-5.738,12.832-12.819V233.569h-27.223
		C353.51,240.772,354.402,248.279,354.402,256.001z"/>
	<path d="M366.422,137.725H332.61c-7.082,0-12.819,5.738-12.819,12.819v33.812c0,7.082,5.738,12.832,12.819,12.832h33.812
		c7.081,0,12.819-5.751,12.819-12.832v-33.811C379.242,143.463,373.504,137.725,366.422,137.725z"/>
	<path d="M257.001,316.129c33.2,0,60.129-26.93,60.129-60.129s-26.93-60.129-60.129-60.129s-60.129,26.93-60.129,60.129
		S223.801,316.129,257.001,316.129z"/>
	<path d="M1,0v512h512V0H1z M415.41,380.291c0,16.746-13.578,30.324-30.324,30.324H128.915c-16.746,0-30.324-13.578-30.324-30.324
		V131.709c0-16.746,13.578-30.324,30.324-30.324h256.17c16.746,0,30.324,13.578,30.324,30.324v248.582H415.41z"/>
</g>
</svg>
